<?xml version="1.0" encoding="UTF-8"?><svg id="_レイヤー_2" xmlns="http://www.w3.org/2000/svg" xmlns:xlink="http://www.w3.org/1999/xlink" viewBox="0 0 2559.68 1211.11"><defs><style>.cls-1{fill:url(#_名称未設定グラデーション_26);}.cls-2{fill:url(#_名称未設定グラデーション_26-2);}</style><linearGradient id="_名称未設定グラデーション_26" x1="1279.84" y1="1214.09" x2="1279.84" y2="-20.96" gradientUnits="userSpaceOnUse"><stop offset="0" stop-color="#fff"/><stop offset=".07" stop-color="#fff" stop-opacity=".88"/><stop offset=".19" stop-color="#fff" stop-opacity=".69"/><stop offset=".32" stop-color="#fff" stop-opacity=".52"/><stop offset=".45" stop-color="#fff" stop-opacity=".39"/><stop offset=".58" stop-color="#fff" stop-opacity=".28"/><stop offset=".72" stop-color="#fff" stop-opacity=".21"/><stop offset=".85" stop-color="#fff" stop-opacity=".16"/><stop offset="1" stop-color="#fff" stop-opacity=".15"/></linearGradient><linearGradient id="_名称未設定グラデーション_26-2" x1="1279.84" y1="1207.68" x2="1279.84" y2="142.47" xlink:href="#_名称未設定グラデーション_26"/></defs><g id="_レイヤー_1-2"><path class="cls-1" d="M2559.68,0v1210.82H0V94.99c6.13.59,12.38,1.47,18.51,1.99,64.45,5.44,128.89,12.82,192.73,23.24,150.08,24.49,296.83,72.49,451.17,55.75,165.19-17.92,312.22-105.67,475.18-134.74,141.26-25.2,295.83-14.26,437.61,1.87,260.44,29.62,538.17,91.42,796.72,19.61,57.56-15.99,113.89-38.21,170.34-57.63,5.58-1.92,11.6-4.22,17.42-5.07Z"/><path class="cls-2" d="M1086.86,145.89c1.04,1.66,3.79,1,5.48,1.02,58.27.61,120.5,8.41,177.51,20.47,149.43,31.6,285.44,103.71,439.44,119.49,153.54,15.73,296.67-27.41,446.1-50.82,109.78-17.19,221.74-27.94,332.75-32.2,23.81-.92,47.84-.2,71.53-1.96v1009.22H0V182.89c161.91,40.47,331.78,31.08,496.43,13.99,165.88-17.22,330.93-46.11,498.03-49.94l2.42-1.04h89.99Z"/></g></svg>